<?xml version="1.0" encoding="UTF-8"?>
<svg xmlns="http://www.w3.org/2000/svg" width="656" height="376" viewBox="0 0 656 376">


  <!-- outside white -->
  <rect width="656" height="376" fill="#ffffff"/>
  <!-- soft outer shadow of card -->
  <rect x="10" y="12" width="636" height="356" rx="48" ry="48" fill="#00000018"/>
  <!-- border -->
  <rect x="8" y="8" width="640" height="360" rx="48" ry="48" fill="#C4A484"/>
  <!-- inner pastel -->
  <defs>
    <linearGradient id="bgGrad" x1="0" y1="0" x2="0" y2="1">
      <stop offset="0%" stop-color="#FFF8F0"/>
      <stop offset="100%" stop-color="#F5E6D3"/>
    </linearGradient>
    <filter id="softShadow" x="-30%" y="-30%" width="160%" height="160%">
      <feGaussianBlur in="SourceAlpha" stdDeviation="6"/>
      <feOffset dx="0" dy="6" result="off"/>
      <feComponentTransfer><feFuncA type="linear" slope="0.28"/></feComponentTransfer>
      <feMerge><feMergeNode/><feMergeNode in="SourceGraphic"/></feMerge>
    </filter>
    <filter id="grain">
      <feTurbulence type="fractalNoise" baseFrequency="0.9" numOctaves="2" result="noise"/>
      <feColorMatrix type="matrix" values="0 0 0 0 0.5  0 0 0 0 0.5  0 0 0 0 0.5  0 0 0 0.04 0"/>
      <feBlend in="SourceGraphic" mode="overlay"/>
    </filter>
  </defs>
  <rect x="22" y="22" width="612" height="332"
        rx="38" ry="38" fill="url(#bgGrad)"/>
  <rect x="22" y="22" width="612" height="332"
        rx="38" ry="38" fill="#ffffff" opacity="0.08"/>

  <g filter="url(#softShadow)" transform="translate(0,6)">
    <ellipse cx="328" cy="310" rx="150" ry="12" fill="#0000001a"/>
    <defs>
      <linearGradient id="roof" x1="0" y1="0" x2="0" y2="1">
        <stop offset="0%" stop-color="#E85D4C"/>
        <stop offset="100%" stop-color="#C0392B"/>
      </linearGradient>
      <linearGradient id="wall" x1="0" y1="0" x2="0" y2="1">
        <stop offset="0%" stop-color="#FFF5E6"/>
        <stop offset="100%" stop-color="#E8D5B8"/>
      </linearGradient>
      <linearGradient id="door" x1="0" y1="0" x2="0" y2="1">
        <stop offset="0%" stop-color="#6B8CAE"/>
        <stop offset="100%" stop-color="#3D5A7A"/>
      </linearGradient>
    </defs>
    <!-- roof -->
    <path d="M160 155 L328 95 L496 155 Z" fill="url(#roof)" stroke="#9B2C1F" stroke-width="4" stroke-linejoin="round"/>
    <!-- roof highlight -->
    <path d="M200 148 L328 108 L380 128" fill="none" stroke="#ffffff" stroke-width="6" opacity="0.3" stroke-linecap="round"/>
    <!-- walls -->
    <rect x="180" y="150" width="296" height="155" rx="8" fill="url(#wall)" stroke="#C4A484" stroke-width="3.5"/>
    <!-- door -->
    <rect x="230" y="185" width="196" height="120" rx="6" fill="url(#door)" stroke="#2C3E50" stroke-width="3"/>
    <!-- door panels -->
    <line x1="328" y1="190" x2="328" y2="300" stroke="#2C3E50" stroke-width="2.5" opacity="0.5"/>
    <line x1="235" y1="225" x2="421" y2="225" stroke="#2C3E50" stroke-width="2.5" opacity="0.5"/>
    <line x1="235" y1="260" x2="421" y2="260" stroke="#2C3E50" stroke-width="2.5" opacity="0.5"/>
    <!-- door handle -->
    <circle cx="400" cy="245" r="7" fill="#F4D35E" stroke="#C9A227" stroke-width="2"/>
    <!-- foundation -->
    <rect x="165" y="300" width="326" height="18" rx="4" fill="#B8B8C0" stroke="#8A8A96" stroke-width="2"/>
    <!-- little window above door -->
    <rect x="300" y="160" width="56" height="18" rx="4" fill="#A8D8EA" stroke="#5BA3C4" stroke-width="2"/>
  </g>

</svg>
